<svg xmlns="http://www.w3.org/2000/svg" width="1280" height="720" viewBox="0 0 1280 720" role="img" aria-label="Demo poster">
  <defs>
    <linearGradient id="bg" x1="0" y1="0" x2="1" y2="1">
      <stop offset="0%" stop-color="#0b0e16"/>
      <stop offset="100%" stop-color="#141826"/>
    </linearGradient>
    <linearGradient id="accent" x1="0" y1="0" x2="1" y2="0">
      <stop offset="0%" stop-color="#7c5cff"/>
      <stop offset="100%" stop-color="#e879f9"/>
    </linearGradient>
  </defs>
  <rect width="1280" height="720" rx="28" fill="url(#bg)"/>
  <rect x="24" y="24" width="1232" height="672" rx="22" fill="#10131c" stroke="#2a3148"/>
  <circle cx="56" cy="56" r="7" fill="#fb7185"/>
  <circle cx="80" cy="56" r="7" fill="#fcd34d"/>
  <circle cx="104" cy="56" r="7" fill="#34d399"/>
  <text x="130" y="62" fill="#94a3b8" font-family="Segoe UI, Arial, sans-serif" font-size="18">SlipUpClipz · Demo poster</text>
  <rect x="80" y="140" width="1120" height="420" rx="20" fill="#161a27" stroke="#2a3148"/>
    <rect x="140.0" y="382.0" width="17.8" height="18" rx="2" fill="#334155"/><rect x="160.8" y="365.0" width="17.8" height="35" rx="2" fill="#334155"/><rect x="181.7" y="348.0" width="17.8" height="52" rx="2" fill="#334155"/><rect x="202.5" y="331.0" width="17.8" height="69" rx="2" fill="#334155"/><rect x="223.3" y="314.0" width="17.8" height="86" rx="2" fill="#334155"/><rect x="244.2" y="297.0" width="17.8" height="103" rx="2" fill="#334155"/><rect x="265.0" y="280.0" width="17.8" height="120" rx="2" fill="#334155"/><rect x="285.8" y="263.0" width="17.8" height="137" rx="2" fill="#334155"/><rect x="306.7" y="246.0" width="17.8" height="154" rx="2" fill="#334155"/><rect x="327.5" y="229.0" width="17.8" height="171" rx="2" fill="#334155"/><rect x="348.3" y="368.0" width="17.8" height="32" rx="2" fill="url(#accent)"/><rect x="369.2" y="351.0" width="17.8" height="49" rx="2" fill="url(#accent)"/><rect x="390.0" y="334.0" width="17.8" height="66" rx="2" fill="url(#accent)"/><rect x="410.8" y="317.0" width="17.8" height="83" rx="2" fill="url(#accent)"/><rect x="431.7" y="300.0" width="17.8" height="100" rx="2" fill="url(#accent)"/><rect x="452.5" y="283.0" width="17.8" height="117" rx="2" fill="url(#accent)"/><rect x="473.3" y="266.0" width="17.8" height="134" rx="2" fill="url(#accent)"/><rect x="494.2" y="249.0" width="17.8" height="151" rx="2" fill="url(#accent)"/><rect x="515.0" y="232.0" width="17.8" height="168" rx="2" fill="url(#accent)"/><rect x="535.8" y="371.0" width="17.8" height="29" rx="2" fill="url(#accent)"/><rect x="556.7" y="354.0" width="17.8" height="46" rx="2" fill="url(#accent)"/><rect x="577.5" y="337.0" width="17.8" height="63" rx="2" fill="url(#accent)"/><rect x="598.3" y="320.0" width="17.8" height="80" rx="2" fill="url(#accent)"/><rect x="619.2" y="303.0" width="17.8" height="97" rx="2" fill="url(#accent)"/><rect x="640.0" y="286.0" width="17.8" height="114" rx="2" fill="url(#accent)"/><rect x="660.8" y="269.0" width="17.8" height="131" rx="2" fill="url(#accent)"/><rect x="681.7" y="252.0" width="17.8" height="148" rx="2" fill="url(#accent)"/><rect x="702.5" y="235.0" width="17.8" height="165" rx="2" fill="url(#accent)"/><rect x="723.3" y="374.0" width="17.8" height="26" rx="2" fill="url(#accent)"/><rect x="744.2" y="357.0" width="17.8" height="43" rx="2" fill="url(#accent)"/><rect x="765.0" y="340.0" width="17.8" height="60" rx="2" fill="url(#accent)"/><rect x="785.8" y="323.0" width="17.8" height="77" rx="2" fill="url(#accent)"/><rect x="806.7" y="306.0" width="17.8" height="94" rx="2" fill="url(#accent)"/><rect x="827.5" y="289.0" width="17.8" height="111" rx="2" fill="url(#accent)"/><rect x="848.3" y="272.0" width="17.8" height="128" rx="2" fill="url(#accent)"/><rect x="869.2" y="255.0" width="17.8" height="145" rx="2" fill="url(#accent)"/><rect x="890.0" y="238.0" width="17.8" height="162" rx="2" fill="url(#accent)"/><rect x="910.8" y="377.0" width="17.8" height="23" rx="2" fill="url(#accent)"/><rect x="931.7" y="360.0" width="17.8" height="40" rx="2" fill="url(#accent)"/><rect x="952.5" y="343.0" width="17.8" height="57" rx="2" fill="url(#accent)"/><rect x="973.3" y="326.0" width="17.8" height="74" rx="2" fill="#334155"/><rect x="994.2" y="309.0" width="17.8" height="91" rx="2" fill="#334155"/><rect x="1015.0" y="292.0" width="17.8" height="108" rx="2" fill="#334155"/><rect x="1035.8" y="275.0" width="17.8" height="125" rx="2" fill="#334155"/><rect x="1056.7" y="258.0" width="17.8" height="142" rx="2" fill="#334155"/><rect x="1077.5" y="241.0" width="17.8" height="159" rx="2" fill="#334155"/><rect x="1098.3" y="380.0" width="17.8" height="20" rx="2" fill="#334155"/><rect x="1119.2" y="363.0" width="17.8" height="37" rx="2" fill="#334155"/>
    <circle cx="640" cy="350" r="54" fill="url(#accent)"/>
    <polygon points="628,325 668,350 628,375" fill="white"/>
    <text x="640" y="470" text-anchor="middle" fill="#e2e8f0" font-size="28" font-family="Segoe UI, Arial, sans-serif" font-weight="700">See SlipUpClipz in action</text>
</svg>