<svg xmlns="http://www.w3.org/2000/svg" width="1280" height="720" viewBox="0 0 1280 720" role="img" aria-label="Settings">
  <defs>
    <linearGradient id="bg" x1="0" y1="0" x2="1" y2="1">
      <stop offset="0%" stop-color="#0b0e16"/>
      <stop offset="100%" stop-color="#141826"/>
    </linearGradient>
    <linearGradient id="accent" x1="0" y1="0" x2="1" y2="0">
      <stop offset="0%" stop-color="#7c5cff"/>
      <stop offset="100%" stop-color="#e879f9"/>
    </linearGradient>
  </defs>
  <rect width="1280" height="720" rx="28" fill="url(#bg)"/>
  <rect x="24" y="24" width="1232" height="672" rx="22" fill="#10131c" stroke="#2a3148"/>
  <circle cx="56" cy="56" r="7" fill="#fb7185"/>
  <circle cx="80" cy="56" r="7" fill="#fcd34d"/>
  <circle cx="104" cy="56" r="7" fill="#34d399"/>
  <text x="130" y="62" fill="#94a3b8" font-family="Segoe UI, Arial, sans-serif" font-size="18">SlipUpClipz · Settings</text>
  <rect x="80" y="140" width="360" height="420" rx="18" fill="#161a27" stroke="#2a3148"/>
    <text x="110" y="190" fill="#e2e8f0" font-size="22" font-family="Segoe UI, Arial, sans-serif" font-weight="700">Settings</text>
    <rect x="110" y="230" width="300" height="52" rx="12" fill="#241b45"/><text x="130" y="262" fill="#cbd5e1" font-size="18" font-family="Segoe UI, Arial, sans-serif">Audio output</text>
    <rect x="110" y="300" width="300" height="52" rx="12" fill="#1c2233"/><text x="130" y="332" fill="#cbd5e1" font-size="18" font-family="Segoe UI, Arial, sans-serif">Updates</text>
    <rect x="110" y="370" width="300" height="52" rx="12" fill="#1c2233"/><text x="130" y="402" fill="#cbd5e1" font-size="18" font-family="Segoe UI, Arial, sans-serif">Help &amp; Support</text>
    <rect x="110" y="440" width="300" height="52" rx="12" fill="#1c2233"/><text x="130" y="472" fill="#cbd5e1" font-size="18" font-family="Segoe UI, Arial, sans-serif">License</text>
    <rect x="480" y="140" width="720" height="420" rx="18" fill="#161a27" stroke="#2a3148"/>
    <text x="520" y="200" fill="#e2e8f0" font-size="24" font-family="Segoe UI, Arial, sans-serif" font-weight="700">Virtual microphone routing</text>
    <text x="520" y="250" fill="#94a3b8" font-size="18" font-family="Segoe UI, Arial, sans-serif">Output device</text>
    <rect x="520" y="270" width="640" height="56" rx="12" fill="#1c2233" stroke="#2a3148"/>
    <text x="540" y="305" fill="#cbd5e1" font-size="18" font-family="Segoe UI, Arial, sans-serif">CABLE Input (VB-Audio Virtual Cable)</text>
</svg>