<svg xmlns="http://www.w3.org/2000/svg" width="1280" height="720" viewBox="0 0 1280 720" role="img" aria-label="Soundboard">
  <defs>
    <linearGradient id="bg" x1="0" y1="0" x2="1" y2="1">
      <stop offset="0%" stop-color="#0b0e16"/>
      <stop offset="100%" stop-color="#141826"/>
    </linearGradient>
    <linearGradient id="accent" x1="0" y1="0" x2="1" y2="0">
      <stop offset="0%" stop-color="#7c5cff"/>
      <stop offset="100%" stop-color="#e879f9"/>
    </linearGradient>
  </defs>
  <rect width="1280" height="720" rx="28" fill="url(#bg)"/>
  <rect x="24" y="24" width="1232" height="672" rx="22" fill="#10131c" stroke="#2a3148"/>
  <circle cx="56" cy="56" r="7" fill="#fb7185"/>
  <circle cx="80" cy="56" r="7" fill="#fcd34d"/>
  <circle cx="104" cy="56" r="7" fill="#34d399"/>
  <text x="130" y="62" fill="#94a3b8" font-family="Segoe UI, Arial, sans-serif" font-size="18">SlipUpClipz · Soundboard</text>
  <text x="80" y="130" fill="#e2e8f0" font-size="28" font-family="Segoe UI, Arial, sans-serif" font-weight="700">Soundboard</text><rect x="80" y="170" width="270" height="130" rx="18" fill="#161a27" stroke="#2a3148"/><text x="104" y="242" fill="#cbd5e1" font-size="24" font-family="Segoe UI, Arial, sans-serif" font-weight="700">LOL</text><rect x="370" y="170" width="270" height="130" rx="18" fill="#161a27" stroke="#2a3148"/><text x="394" y="242" fill="#cbd5e1" font-size="24" font-family="Segoe UI, Arial, sans-serif" font-weight="700">No way</text><rect x="660" y="170" width="270" height="130" rx="18" fill="#2a1f4d" stroke="#7c5cff"/><text x="684" y="242" fill="#fff" font-size="24" font-family="Segoe UI, Arial, sans-serif" font-weight="700">Clip</text><rect x="950" y="170" width="270" height="130" rx="18" fill="#161a27" stroke="#2a3148"/><text x="974" y="242" fill="#cbd5e1" font-size="24" font-family="Segoe UI, Arial, sans-serif" font-weight="700">Bruh</text><rect x="80" y="320" width="270" height="130" rx="18" fill="#161a27" stroke="#2a3148"/><text x="104" y="392" fill="#cbd5e1" font-size="24" font-family="Segoe UI, Arial, sans-serif" font-weight="700">GG</text><rect x="370" y="320" width="270" height="130" rx="18" fill="#161a27" stroke="#2a3148"/><text x="394" y="392" fill="#cbd5e1" font-size="24" font-family="Segoe UI, Arial, sans-serif" font-weight="700">Wait</text><rect x="660" y="320" width="270" height="130" rx="18" fill="#161a27" stroke="#2a3148"/><text x="684" y="392" fill="#cbd5e1" font-size="24" font-family="Segoe UI, Arial, sans-serif" font-weight="700">What</text><rect x="950" y="320" width="270" height="130" rx="18" fill="#161a27" stroke="#2a3148"/><text x="974" y="392" fill="#cbd5e1" font-size="24" font-family="Segoe UI, Arial, sans-serif" font-weight="700">Send it</text><rect x="80" y="470" width="270" height="130" rx="18" fill="#161a27" stroke="#2a3148"/><text x="104" y="542" fill="#cbd5e1" font-size="24" font-family="Segoe UI, Arial, sans-serif" font-weight="700">Nice</text><rect x="370" y="470" width="270" height="130" rx="18" fill="#161a27" stroke="#2a3148"/><text x="394" y="542" fill="#cbd5e1" font-size="24" font-family="Segoe UI, Arial, sans-serif" font-weight="700">Oof</text><rect x="660" y="470" width="270" height="130" rx="18" fill="#161a27" stroke="#2a3148"/><text x="684" y="542" fill="#cbd5e1" font-size="24" font-family="Segoe UI, Arial, sans-serif" font-weight="700">Pause</text><rect x="950" y="470" width="270" height="130" rx="18" fill="#161a27" stroke="#2a3148"/><text x="974" y="542" fill="#cbd5e1" font-size="24" font-family="Segoe UI, Arial, sans-serif" font-weight="700">Fire</text>
</svg>