<svg xmlns="http://www.w3.org/2000/svg" width="1280" height="720" viewBox="0 0 1280 720" role="img" aria-label="Trim editor">
  <defs>
    <linearGradient id="bg" x1="0" y1="0" x2="1" y2="1">
      <stop offset="0%" stop-color="#0b0e16"/>
      <stop offset="100%" stop-color="#141826"/>
    </linearGradient>
    <linearGradient id="accent" x1="0" y1="0" x2="1" y2="0">
      <stop offset="0%" stop-color="#7c5cff"/>
      <stop offset="100%" stop-color="#e879f9"/>
    </linearGradient>
  </defs>
  <rect width="1280" height="720" rx="28" fill="url(#bg)"/>
  <rect x="24" y="24" width="1232" height="672" rx="22" fill="#10131c" stroke="#2a3148"/>
  <circle cx="56" cy="56" r="7" fill="#fb7185"/>
  <circle cx="80" cy="56" r="7" fill="#fcd34d"/>
  <circle cx="104" cy="56" r="7" fill="#34d399"/>
  <text x="130" y="62" fill="#94a3b8" font-family="Segoe UI, Arial, sans-serif" font-size="18">SlipUpClipz · Trim editor</text>
  <rect x="80" y="140" width="1120" height="420" rx="20" fill="#161a27" stroke="#2a3148"/>
    <text x="120" y="190" fill="#e2e8f0" font-size="28" font-family="Segoe UI, Arial, sans-serif" font-weight="700">Trim · 0:04 – 0:11</text>
    <rect x="120.0" y="432.0" width="18.7" height="18" rx="2" fill="#334155"/><rect x="141.7" y="415.0" width="18.7" height="35" rx="2" fill="#334155"/><rect x="163.3" y="398.0" width="18.7" height="52" rx="2" fill="#334155"/><rect x="185.0" y="381.0" width="18.7" height="69" rx="2" fill="#334155"/><rect x="206.7" y="364.0" width="18.7" height="86" rx="2" fill="#334155"/><rect x="228.3" y="347.0" width="18.7" height="103" rx="2" fill="#334155"/><rect x="250.0" y="330.0" width="18.7" height="120" rx="2" fill="#334155"/><rect x="271.7" y="313.0" width="18.7" height="137" rx="2" fill="#334155"/><rect x="293.3" y="296.0" width="18.7" height="154" rx="2" fill="#334155"/><rect x="315.0" y="279.0" width="18.7" height="171" rx="2" fill="#334155"/><rect x="336.7" y="262.0" width="18.7" height="188" rx="2" fill="#334155"/><rect x="358.3" y="245.0" width="18.7" height="205" rx="2" fill="#334155"/><rect x="380.0" y="424.0" width="18.7" height="26" rx="2" fill="#334155"/><rect x="401.7" y="407.0" width="18.7" height="43" rx="2" fill="#334155"/><rect x="423.3" y="390.0" width="18.7" height="60" rx="2" fill="url(#accent)"/><rect x="445.0" y="373.0" width="18.7" height="77" rx="2" fill="url(#accent)"/><rect x="466.7" y="356.0" width="18.7" height="94" rx="2" fill="url(#accent)"/><rect x="488.3" y="339.0" width="18.7" height="111" rx="2" fill="url(#accent)"/><rect x="510.0" y="322.0" width="18.7" height="128" rx="2" fill="url(#accent)"/><rect x="531.7" y="305.0" width="18.7" height="145" rx="2" fill="url(#accent)"/><rect x="553.3" y="288.0" width="18.7" height="162" rx="2" fill="url(#accent)"/><rect x="575.0" y="271.0" width="18.7" height="179" rx="2" fill="url(#accent)"/><rect x="596.7" y="254.0" width="18.7" height="196" rx="2" fill="url(#accent)"/><rect x="618.3" y="237.0" width="18.7" height="213" rx="2" fill="url(#accent)"/><rect x="640.0" y="416.0" width="18.7" height="34" rx="2" fill="url(#accent)"/><rect x="661.7" y="399.0" width="18.7" height="51" rx="2" fill="url(#accent)"/><rect x="683.3" y="382.0" width="18.7" height="68" rx="2" fill="url(#accent)"/><rect x="705.0" y="365.0" width="18.7" height="85" rx="2" fill="url(#accent)"/><rect x="726.7" y="348.0" width="18.7" height="102" rx="2" fill="url(#accent)"/><rect x="748.3" y="331.0" width="18.7" height="119" rx="2" fill="url(#accent)"/><rect x="770.0" y="314.0" width="18.7" height="136" rx="2" fill="url(#accent)"/><rect x="791.7" y="297.0" width="18.7" height="153" rx="2" fill="url(#accent)"/><rect x="813.3" y="280.0" width="18.7" height="170" rx="2" fill="#334155"/><rect x="835.0" y="263.0" width="18.7" height="187" rx="2" fill="#334155"/><rect x="856.7" y="246.0" width="18.7" height="204" rx="2" fill="#334155"/><rect x="878.3" y="425.0" width="18.7" height="25" rx="2" fill="#334155"/><rect x="900.0" y="408.0" width="18.7" height="42" rx="2" fill="#334155"/><rect x="921.7" y="391.0" width="18.7" height="59" rx="2" fill="#334155"/><rect x="943.3" y="374.0" width="18.7" height="76" rx="2" fill="#334155"/><rect x="965.0" y="357.0" width="18.7" height="93" rx="2" fill="#334155"/><rect x="986.7" y="340.0" width="18.7" height="110" rx="2" fill="#334155"/><rect x="1008.3" y="323.0" width="18.7" height="127" rx="2" fill="#334155"/><rect x="1030.0" y="306.0" width="18.7" height="144" rx="2" fill="#334155"/><rect x="1051.7" y="289.0" width="18.7" height="161" rx="2" fill="#334155"/><rect x="1073.3" y="272.0" width="18.7" height="178" rx="2" fill="#334155"/><rect x="1095.0" y="255.0" width="18.7" height="195" rx="2" fill="#334155"/><rect x="1116.7" y="238.0" width="18.7" height="212" rx="2" fill="#334155"/><rect x="1138.3" y="417.0" width="18.7" height="33" rx="2" fill="#334155"/>
    <rect x="120" y="480" width="140" height="44" rx="12" fill="#1c2233" stroke="#2a3148"/>
    <text x="150" y="508" fill="#cbd5e1" font-size="16" font-family="Segoe UI, Arial, sans-serif">Preview</text>
    <rect x="280" y="480" width="140" height="44" rx="12" fill="url(#accent)"/>
    <text x="318" y="508" fill="white" font-size="16" font-family="Segoe UI, Arial, sans-serif" font-weight="700">Save</text>
</svg>