<svg xmlns="http://www.w3.org/2000/svg" width="1280" height="720" viewBox="0 0 1280 720" role="img" aria-label="Voice effects">
  <defs>
    <linearGradient id="bg" x1="0" y1="0" x2="1" y2="1">
      <stop offset="0%" stop-color="#0b0e16"/>
      <stop offset="100%" stop-color="#141826"/>
    </linearGradient>
    <linearGradient id="accent" x1="0" y1="0" x2="1" y2="0">
      <stop offset="0%" stop-color="#7c5cff"/>
      <stop offset="100%" stop-color="#e879f9"/>
    </linearGradient>
  </defs>
  <rect width="1280" height="720" rx="28" fill="url(#bg)"/>
  <rect x="24" y="24" width="1232" height="672" rx="22" fill="#10131c" stroke="#2a3148"/>
  <circle cx="56" cy="56" r="7" fill="#fb7185"/>
  <circle cx="80" cy="56" r="7" fill="#fcd34d"/>
  <circle cx="104" cy="56" r="7" fill="#34d399"/>
  <text x="130" y="62" fill="#94a3b8" font-family="Segoe UI, Arial, sans-serif" font-size="18">SlipUpClipz · Voice effects</text>
  <rect x="80" y="140" width="1120" height="420" rx="20" fill="#161a27" stroke="#2a3148"/>
    <text x="120" y="200" fill="#e2e8f0" font-size="28" font-family="Segoe UI, Arial, sans-serif" font-weight="700">Voice effects</text>
    <rect x="120" y="240" width="220" height="64" rx="32" fill="#1c2233" stroke="#2a3148"/><text x="190" y="280" fill="#cbd5e1" font-size="20" font-family="Segoe UI, Arial, sans-serif" font-weight="700">Deep</text>
    <rect x="370" y="240" width="220" height="64" rx="32" fill="#3b2048" stroke="#e879f9"/><text x="430" y="280" fill="#e879f9" font-size="20" font-family="Segoe UI, Arial, sans-serif" font-weight="700">Squeaky</text>
    <rect x="620" y="240" width="220" height="64" rx="32" fill="#1c2233" stroke="#2a3148"/><text x="685" y="280" fill="#cbd5e1" font-size="20" font-family="Segoe UI, Arial, sans-serif" font-weight="700">Radio</text>
    <rect x="870" y="240" width="220" height="64" rx="32" fill="#1c2233" stroke="#2a3148"/><text x="935" y="280" fill="#cbd5e1" font-size="20" font-family="Segoe UI, Arial, sans-serif" font-weight="700">Robot</text>
    <text x="120" y="370" fill="#94a3b8" font-size="16" font-family="Segoe UI, Arial, sans-serif">Pitch</text>
    <rect x="120" y="390" width="500" height="12" rx="6" fill="#1c2233"/>
    <rect x="120" y="390" width="280" height="12" rx="6" fill="url(#accent)"/>
    <text x="120" y="450" fill="#94a3b8" font-size="16" font-family="Segoe UI, Arial, sans-serif">Bass</text>
    <rect x="120" y="470" width="500" height="12" rx="6" fill="#1c2233"/>
    <rect x="120" y="470" width="210" height="12" rx="6" fill="url(#accent)"/>
    <rect x="700" y="390" width="420" height="92" rx="16" fill="#1c2233" stroke="#2a3148"/>
    <text x="730" y="445" fill="#cbd5e1" font-size="20" font-family="Segoe UI, Arial, sans-serif">Hear Myself · monitoring</text>
</svg>